<mxfile host="app.diagrams.net" agent="Mozilla/5.0 (Macintosh; Intel Mac OS X 10_15_7) AppleWebKit/537.36 (KHTML, like Gecko) Chrome/131.0.0.0 Safari/537.36" version="25.0.3">
  <diagram name="第 1 页" id="IeLyGM84fYNEDb-vOYWm">
    <mxGraphModel dx="1430" dy="837" grid="1" gridSize="10" guides="1" tooltips="1" connect="1" arrows="1" fold="1" page="1" pageScale="1" pageWidth="3200" pageHeight="2400" math="0" shadow="0">
      <root>
        <mxCell id="0" />
        <mxCell id="1" parent="0" />
        <mxCell id="qMV1Z36RkEWydGHG75RR-3" style="edgeStyle=orthogonalEdgeStyle;rounded=0;orthogonalLoop=1;jettySize=auto;html=1;exitX=0.5;exitY=1;exitDx=0;exitDy=0;" edge="1" parent="1" source="qMV1Z36RkEWydGHG75RR-1" target="qMV1Z36RkEWydGHG75RR-2">
          <mxGeometry relative="1" as="geometry" />
        </mxCell>
        <mxCell id="qMV1Z36RkEWydGHG75RR-1" value="&lt;font style=&quot;font-size: 14px;&quot;&gt;开始&lt;/font&gt;" style="rounded=1;whiteSpace=wrap;html=1;" vertex="1" parent="1">
          <mxGeometry x="1440" y="140" width="120" height="60" as="geometry" />
        </mxCell>
        <mxCell id="qMV1Z36RkEWydGHG75RR-11" style="edgeStyle=orthogonalEdgeStyle;rounded=0;orthogonalLoop=1;jettySize=auto;html=1;exitX=0.5;exitY=1;exitDx=0;exitDy=0;" edge="1" parent="1" source="qMV1Z36RkEWydGHG75RR-2" target="qMV1Z36RkEWydGHG75RR-9">
          <mxGeometry relative="1" as="geometry" />
        </mxCell>
        <mxCell id="qMV1Z36RkEWydGHG75RR-12" value="是" style="edgeLabel;html=1;align=center;verticalAlign=middle;resizable=0;points=[];" vertex="1" connectable="0" parent="qMV1Z36RkEWydGHG75RR-11">
          <mxGeometry y="4" relative="1" as="geometry">
            <mxPoint as="offset" />
          </mxGeometry>
        </mxCell>
        <mxCell id="qMV1Z36RkEWydGHG75RR-2" value="&lt;font style=&quot;font-size: 14px;&quot;&gt;是否设置超时时间？&lt;/font&gt;" style="rhombus;whiteSpace=wrap;html=1;align=center;" vertex="1" parent="1">
          <mxGeometry x="1430" y="240" width="140" height="100" as="geometry" />
        </mxCell>
        <mxCell id="qMV1Z36RkEWydGHG75RR-15" style="edgeStyle=orthogonalEdgeStyle;rounded=0;orthogonalLoop=1;jettySize=auto;html=1;exitX=0.5;exitY=1;exitDx=0;exitDy=0;entryX=0.5;entryY=0;entryDx=0;entryDy=0;" edge="1" parent="1" source="qMV1Z36RkEWydGHG75RR-9" target="qMV1Z36RkEWydGHG75RR-14">
          <mxGeometry relative="1" as="geometry" />
        </mxCell>
        <mxCell id="qMV1Z36RkEWydGHG75RR-16" value="否" style="edgeLabel;html=1;align=center;verticalAlign=middle;resizable=0;points=[];" vertex="1" connectable="0" parent="qMV1Z36RkEWydGHG75RR-15">
          <mxGeometry x="0.0629" y="3" relative="1" as="geometry">
            <mxPoint y="-1" as="offset" />
          </mxGeometry>
        </mxCell>
        <mxCell id="qMV1Z36RkEWydGHG75RR-9" value="&lt;div style=&quot;&quot;&gt;&lt;span style=&quot;font-size: 14px; background-color: initial;&quot;&gt;是否达到超时时间？&lt;/span&gt;&lt;/div&gt;" style="rhombus;whiteSpace=wrap;html=1;align=center;" vertex="1" parent="1">
          <mxGeometry x="1430" y="400" width="140" height="100" as="geometry" />
        </mxCell>
        <mxCell id="qMV1Z36RkEWydGHG75RR-18" style="edgeStyle=orthogonalEdgeStyle;rounded=0;orthogonalLoop=1;jettySize=auto;html=1;exitX=0.5;exitY=1;exitDx=0;exitDy=0;" edge="1" parent="1" source="qMV1Z36RkEWydGHG75RR-14" target="qMV1Z36RkEWydGHG75RR-17">
          <mxGeometry relative="1" as="geometry" />
        </mxCell>
        <mxCell id="qMV1Z36RkEWydGHG75RR-14" value="&lt;font style=&quot;font-size: 14px;&quot;&gt;发送请求&lt;/font&gt;" style="rounded=0;whiteSpace=wrap;html=1;" vertex="1" parent="1">
          <mxGeometry x="1440" y="550" width="120" height="60" as="geometry" />
        </mxCell>
        <mxCell id="qMV1Z36RkEWydGHG75RR-20" style="edgeStyle=orthogonalEdgeStyle;rounded=0;orthogonalLoop=1;jettySize=auto;html=1;exitX=0.5;exitY=1;exitDx=0;exitDy=0;entryX=0.5;entryY=0;entryDx=0;entryDy=0;" edge="1" parent="1" source="qMV1Z36RkEWydGHG75RR-17" target="qMV1Z36RkEWydGHG75RR-19">
          <mxGeometry relative="1" as="geometry" />
        </mxCell>
        <mxCell id="qMV1Z36RkEWydGHG75RR-21" value="否" style="edgeLabel;html=1;align=center;verticalAlign=middle;resizable=0;points=[];" vertex="1" connectable="0" parent="qMV1Z36RkEWydGHG75RR-20">
          <mxGeometry x="0.0286" y="4" relative="1" as="geometry">
            <mxPoint y="-1" as="offset" />
          </mxGeometry>
        </mxCell>
        <mxCell id="qMV1Z36RkEWydGHG75RR-17" value="&lt;div style=&quot;&quot;&gt;&lt;span style=&quot;font-size: 14px; background-color: initial;&quot;&gt;err == nil || !retry?&lt;/span&gt;&lt;/div&gt;" style="rhombus;whiteSpace=wrap;html=1;align=center;" vertex="1" parent="1">
          <mxGeometry x="1430" y="660" width="140" height="100" as="geometry" />
        </mxCell>
        <mxCell id="qMV1Z36RkEWydGHG75RR-19" value="&lt;div style=&quot;&quot;&gt;&lt;div style=&quot;background-color:#ffffff;color:#080808&quot;&gt;&lt;pre style=&quot;font-family:&#39;JetBrains Mono&#39;,monospace;font-size:12.0pt;&quot;&gt;&lt;span style=&quot;color:#000000;&quot;&gt;attempts &lt;/span&gt;&amp;gt;= &lt;span style=&quot;color:#000000;&quot;&gt;maxAttempts？&lt;/span&gt;&lt;/pre&gt;&lt;/div&gt;&lt;/div&gt;" style="rhombus;whiteSpace=wrap;html=1;align=center;" vertex="1" parent="1">
          <mxGeometry x="1430" y="820" width="140" height="100" as="geometry" />
        </mxCell>
        <mxCell id="qMV1Z36RkEWydGHG75RR-22" value="&lt;div style=&quot;&quot;&gt;&lt;span style=&quot;font-size: 14px; background-color: initial;&quot;&gt;err == nil || !retry?&lt;/span&gt;&lt;/div&gt;" style="rhombus;whiteSpace=wrap;html=1;align=center;" vertex="1" parent="1">
          <mxGeometry x="1430" y="970" width="140" height="100" as="geometry" />
        </mxCell>
      </root>
    </mxGraphModel>
  </diagram>
</mxfile>
